# xmcd
#
# Track frame offsets:
#	150
#	20982
#	41885
#	66520
#	83542
#	112859
#	137951
#	157328
#	178317
#	199547
#	222321
#	250146
#	272053
#	290110
#	305157
#
# Disc length: 4394 seconds
#
# Revision: 2
# Processed by: cddbd v1.4b41PL1 Copyright (c) Steve Scherf et al.
# Submitted via: audiograbber 1.80
#
DISCID=f411280f
DTITLE=George Michael - Ladies and Gentlemen - The Best of George Michael CD2
DYEAR=1998
DGENRE=Blues
TTITLE0=Outside
TTITLE1=As (with Mary J. Blige)
TTITLE2=Fastlove
TTITLE3=Too Funky
TTITLE4=Freedom 90
TTITLE5=Star People 97
TTITLE6=Killer - Papa Was A Rollin' Stone
TTITLE7=I Want Your Sex (Part II)
TTITLE8=The Strangest Thing 97
TTITLE9=Fantasy
TTITLE10=Spinning The Wheel
TTITLE11=Waiting For That Day
TTITLE12=I Knew Your Were Waiting (For Me) (with Aretha Franklin)
TTITLE13=Faith
TTITLE14=Somebody To Love (with Queen)
EXTD=YEAR: 1998  ID3G:   0
EXTT0=
EXTT1=
EXTT2=
EXTT3=
EXTT4=
EXTT5=
EXTT6=
EXTT7=
EXTT8=
EXTT9=
EXTT10=
EXTT11=
EXTT12=
EXTT13=
EXTT14=
PLAYORDER=
